PathFileType	4	(X/Y/Z)	6_coords_data.trc
DataRate	CameraRate	NumFrames	NumMarkers	Units	OrigDataRate	OrigDataStartFrame	OrigNumFrames
30.0	30.0	9	21	m	30.0	19	75
Frame#	Time	THUMB_TIP	THUMB_IP	THUMB_MCP	THUMB_CMC	INDEX_TIP	INDEX_DIP	INDEX_PIP	INDEX_MCP	MIDDLE_TIP	MIDDLE_DIP	MIDDLE_PIP	MIDDLE_MCP	RING_TIP	RING_DIP	RING_PIP	RING_MCP	PINKY_TIP	PINKY_DIP	PINKY_PIP	PINKY_MCP	WRIST
X1	Y1	Z1	X2	Y2	Z2	X3	Y3	Z3	X4	Y4	Z4	X5	Y5	Z5	X6	Y6	Z6	X7	Y7	Z7	X8	Y8	Z8	X9	Y9	Z9	X10	Y10	Z10	X11	Y11	Z11	X12	Y12	Z12	X13	Y13	Z13	X14	Y14	Z14	X15	Y15	Z15	X16	Y16	Z16	X17	Y17	Z17	X18	Y18	Z18	X19	Y19	Z19	X20	Y20	Z20	X21	Y21	Z21
18	0.6	-0.015318400382995605	-0.13257000732421875	1.0155700073242186	-0.004514579772949219	-0.10674900054931641	1.0225599975585937	-0.006153600215911865	-0.0800031967163086	1.0393599853515625	-0.006527699947357178	-0.041306098937988284	1.0513499755859375	0.0035645399093627928	-0.0478380012512207	1.021530029296875	0.021078800201416014	-0.046321800231933594	1.0134099731445312	0.027910400390625	-0.05009989929199219	0.98927001953125	-0.013335599899291992	-0.055257598876953126	0.9905819702148437	0.009708160400390626	-0.032438701629638675	1.0250400390625	0.019126399993896485	-0.029153900146484377	1.017280029296875	0.027224300384521484	-0.028655000686645508	0.9887930297851563	-0.017378599166870116	-0.031014499664306642	0.9837689819335937	0.003917340040206909	-0.015320300102233887	1.0274000244140624	0.01633370018005371	-0.011831199645996094	1.0191300048828125	0.026485300064086913	-0.008249690055847168	0.99368798828125	-0.015858799934387206	-0.006282489776611328	0.987530029296875	0.001655210018157959	0.001955839991569519	1.0258599853515624	0.016470500946044922	0.004098720073699951	1.018260009765625	0.020393699645996095	0.00955580997467041	0.9992360229492188	-0.011138500213623047	0.014280300140380859	0.9968350219726563	-0.0257283992767334	-0.011905200004577636	1.06831005859375
19	0.6333333333333333	-0.015301600456237793	-0.13250999450683593	1.0153900146484376	-0.004500699996948242	-0.10663200378417968	1.0225499877929687	-0.006099510192871094	-0.08006549835205078	1.0393499755859374	-0.006449150085449219	-0.04135540008544922	1.0514000244140624	0.003373539924621582	-0.047904399871826174	1.0215599975585938	0.021293399810791015	-0.0463931999206543	1.013510009765625	0.028069700241088867	-0.05026129913330078	0.9895189819335938	-0.01307450008392334	-0.05532600021362305	0.9905059814453125	0.00992626953125	-0.032439498901367186	1.024760009765625	0.019202999114990234	-0.029216400146484377	1.01725	0.027493400573730467	-0.028586999893188476	0.9890369873046875	-0.017218000411987306	-0.031014699935913086	0.9838519897460938	0.0042221097946167	-0.015429800033569335	1.0273599853515625	0.016531700134277343	-0.011882399559020996	1.0190800170898437	0.026677799224853516	-0.008263190269470215	0.9937429809570313	-0.015612099647521973	-0.006319769859313965	0.9874860229492187	0.0018273600339889522	0.001877769947052002	1.0259200439453124	0.016436500549316405	0.004018109798431395	1.0183200073242187	0.02061149978637695	0.00944674015045166	0.9993189697265625	-0.010936200141906738	0.01418179988861084	0.9966849975585937	-0.025697200775146485	-0.011811499595642089	1.06825
20	0.6666666666666666	-0.015234999656677246	-0.13254100036621094	1.0153400268554686	-0.0044280200004577636	-0.1065989990234375	1.0226099853515624	-0.005993979930877686	-0.08007669830322266	1.039489990234375	-0.006339700222015381	-0.0414823989868164	1.051489990234375	0.0037761800289154053	-0.0480634994506836	1.02152001953125	0.02136949920654297	-0.04657300186157227	1.0135499877929688	0.02820120048522949	-0.05038219833374023	0.9894509887695313	-0.012929900169372559	-0.055490001678466794	0.9907570190429688	0.010083900451660157	-0.03264889907836914	1.0250899658203125	0.019474199295043945	-0.02938789939880371	1.0174600219726562	0.027627500534057617	-0.028933000564575196	0.9889910278320313	-0.016987600326538087	-0.031220399856567382	0.9838489990234375	0.004475490093231201	-0.015560400009155274	1.027800048828125	0.016839500427246093	-0.012086899757385253	1.0194500122070314	0.026927499771118163	-0.008517749786376953	0.99389697265625	-0.015386500358581544	-0.006515230178833008	0.9874749755859376	0.001994619965553283	0.0017587800025939942	1.0258599853515624	0.01670319938659668	0.003833920001983642	1.018280029296875	0.020908500671386717	0.00927787971496582	0.9993460083007812	-0.010689599990844727	0.01399370002746582	0.9967369995117188	-0.025500200271606446	-0.012035400390625	1.068260009765625
21	0.7	-0.015045700073242187	-0.1326199951171875	1.01525	-0.004244279861450195	-0.10672000122070313	1.0225399780273436	-0.005875840187072754	-0.08028700256347657	1.0395400390625	-0.006178160190582275	-0.04165840148925781	1.0515400390625	0.004041039943695068	-0.04824959945678711	1.0219199829101562	0.02155850028991699	-0.04671110153198242	1.0136300048828124	0.028318300247192382	-0.05067779922485351	0.9895780029296875	-0.012798500061035157	-0.05564139938354492	0.9908090209960938	0.010631600379943847	-0.032653499603271484	1.0248699951171876	0.019665399551391603	-0.029516300201416015	1.0175	0.02778660011291504	-0.029086700439453127	0.9890260009765625	-0.016864200592041016	-0.031332099914550784	0.9839550170898438	0.004896949768066406	-0.015732500076293947	1.02768994140625	0.016825799942016603	-0.012252699851989747	1.019280029296875	0.027121700286865235	-0.008642740249633789	0.9939979858398438	-0.015246000289916992	-0.006659910202026367	0.9875980224609375	0.0022124300003051756	0.0016133300065994261	1.0258299560546875	0.017050199508666992	0.0036872599124908438	1.01822998046875	0.02105529975891113	0.009114720344543458	0.9993389892578125	-0.010530799865722655	0.013844599723815918	0.996801025390625	-0.025298599243164063	-0.01207639980316162	1.0684200439453124
22	0.7333333333333333	-0.014618800163269044	-0.13256300354003905	1.0150499877929688	-0.003952729940414428	-0.10674400329589843	1.022469970703125	-0.005732079982757568	-0.08033840179443359	1.039510009765625	-0.006034070014953613	-0.04177320098876953	1.05156005859375	0.004187679767608642	-0.048281898498535154	1.0215599975585938	0.021702999114990233	-0.04678459930419922	1.0136099853515625	0.02859339904785156	-0.05058459854125977	0.9895260009765625	-0.012568699836730956	-0.055652698516845706	0.9908259887695312	0.010096799850463868	-0.0329010009765625	1.0251099853515624	0.01984049987792969	-0.029620899200439452	1.0173699951171875	0.02801689910888672	-0.029104299545288086	0.9890120239257812	-0.01659779930114746	-0.03138129997253418	0.9838419799804687	0.005030690193176268	-0.01575	1.02747998046875	0.01703380012512207	-0.012253299713134765	1.0192899780273437	0.02726810073852539	-0.0087356595993042	0.9940369873046875	-0.015053799629211426	-0.006671329975128174	0.987614990234375	0.0023873200416564943	0.001575399994850158	1.0256400146484375	0.01709869956970215	0.003651819944381714	1.018219970703125	0.021281900405883788	0.009074199676513671	0.9996519775390625	-0.01036299991607666	0.013855600357055664	0.9968809814453125	-0.025183799743652344	-0.012103099822998047	1.06847998046875
23	0.7666666666666667	-0.014333000183105469	-0.13262399291992188	1.015030029296875	-0.003740449905395508	-0.1068219985961914	1.022469970703125	-0.005567530155181885	-0.08038760375976563	1.0395799560546874	-0.005956739902496338	-0.041828998565673826	1.051550048828125	0.004235899925231933	-0.048387100219726566	1.021780029296875	0.021887100219726563	-0.04688949966430664	1.0135700073242186	0.028757299423217773	-0.050679798126220706	0.9895910034179688	-0.012376999855041504	-0.0557671012878418	0.9907680053710938	0.010478400230407714	-0.03295840072631836	1.025449951171875	0.020060600280761717	-0.029709800720214844	1.0174500122070314	0.028163900375366212	-0.02923390007019043	0.9890399780273438	-0.0164468994140625	-0.03145919990539551	0.9838900146484375	0.005555970191955566	-0.015832400321960448	1.0274000244140624	0.017087799072265625	-0.012355099678039551	1.0191300048828125	0.027430700302124023	-0.008874159812927246	0.9939349975585937	-0.014822500228881836	-0.006792520046234131	0.9875770263671875	0.002475500106811523	0.0014932199716567991	1.0256300048828124	0.017176799774169922	0.003569560050964355	1.0183499755859375	0.021407400131225586	0.008976770401000976	0.99960302734375	-0.01014330005645752	0.01376669979095459	0.9968350219726563	-0.025144399642944334	-0.01222029972076416	1.0683699951171874
24	0.8	-0.014304200172424316	-0.1326529998779297	1.0149099731445312	-0.003676090002059936	-0.10686399841308594	1.0223900146484375	-0.0055167899131774905	-0.08045880126953125	1.03952001953125	-0.005855790138244629	-0.041827499389648436	1.0515400390625	0.004182769775390625	-0.04843999862670898	1.0216599731445313	0.021947099685668946	-0.0470171012878418	1.0135499877929688	0.02883930015563965	-0.0507223014831543	0.9895540161132812	-0.012350600242614746	-0.055815601348876955	0.9907369995117188	0.010504500389099121	-0.03312540054321289	1.025489990234375	0.020143199920654296	-0.02980270004272461	1.0174299926757813	0.028124700546264647	-0.029359800338745117	0.9887459716796875	-0.01632509994506836	-0.0315669002532959	0.9837689819335937	0.005088640213012695	-0.015940600395202637	1.0275	0.017292200088500978	-0.012431699752807618	1.0190800170898437	0.027479799270629882	-0.008932419776916504	0.9938480224609375	-0.014772500038146973	-0.0068731698989868166	0.9875239868164063	0.002634140014648437	0.001434540033340454	1.0257900390625	0.017420499801635743	0.003491509914398193	1.0184099731445313	0.021454500198364257	0.008856780052185058	0.9993079833984375	-0.010100799560546875	0.013632100105285644	0.9967009887695313	-0.025052000045776367	-0.01222130012512207	1.0684000244140626
25	0.8333333333333334	-0.014214200019836426	-0.13259199523925783	1.0146599731445312	-0.003599030017852783	-0.10678800201416015	1.022239990234375	-0.00537017011642456	-0.08036660003662109	1.0394300537109376	-0.00580525016784668	-0.04187829971313477	1.051530029296875	0.004530389785766601	-0.04842290115356445	1.0215800170898437	0.022069400787353515	-0.04696969985961914	1.0135499877929688	0.028941099166870116	-0.05079460144042969	0.9895479736328125	-0.012164799690246583	-0.05580459976196289	0.9906849975585937	0.01068589973449707	-0.03295220184326172	1.024800048828125	0.020014299392700195	-0.029806699752807617	1.0173699951171875	0.028378599166870116	-0.029322399139404296	0.9889710083007812	-0.016220600128173827	-0.03153709983825684	0.9837550048828125	0.005567530155181885	-0.015993200302124023	1.0274100341796875	0.01722920036315918	-0.01244219970703125	1.0193200073242188	0.0276294002532959	-0.008929710388183593	0.99397998046875	-0.01461400032043457	-0.0068190498352050785	0.9874530029296875	0.0026730000972747803	0.0014279299974441519	1.0260799560546876	0.017340499877929686	0.003397979974746704	1.0174500122070314	0.02160059928894043	0.008889780044555665	0.9995360107421875	-0.009923430442810058	0.013661100387573242	0.9966790161132812	-0.025036500930786132	-0.012215299606323242	1.06831005859375
26	0.8666666666666667	-0.014095399856567383	-0.13252799987792968	1.014489990234375	-0.0034623301029205323	-0.10676100158691407	1.02222998046875	-0.005290470123291016	-0.08036160278320313	1.0394200439453125	-0.005701350212097168	-0.04191360092163086	1.05147998046875	0.004498149871826172	-0.048451099395751956	1.02177001953125	0.022033899307250977	-0.04701620101928711	1.0136300048828124	0.029138299942016603	-0.05085760116577148	0.9896530151367188	-0.011785499572753906	-0.05579130172729492	0.9904439697265625	0.010929400444030762	-0.0329370002746582	1.0249300537109376	0.020169599533081055	-0.029849300384521483	1.0173800048828125	0.02862380027770996	-0.02930690002441406	0.9891699829101562	-0.01586929988861084	-0.03154689979553223	0.9836420288085937	0.00573045015335083	-0.015940400123596193	1.0275699462890624	0.017638500213623048	-0.012461099624633789	1.0194099731445312	0.027870000839233397	-0.008888500213623047	0.9943079833984375	-0.01436929988861084	-0.006820519924163818	0.9874390258789062	0.002871089935302734	0.0013501700162887572	1.026010009765625	0.01770050048828125	0.003472219944000244	1.018469970703125	0.0218843994140625	0.008875020027160644	0.9995910034179688	-0.009683719635009766	0.013649100303649903	0.9966740112304687	-0.024893999099731445	-0.01234060001373291	1.0682900390625
